name E:\Dropbox\SEL\BOX\Experiment\240124_SUB1_PJH\c3d\XYZ\UpDown_TrcMot\15_10_trial2_U1_ExtLoadAPP1.mot
datacolumns 37
datarows 14
range 1.51 1.523
endheader

time	    ground_force1_vx	    ground_force1_vy	    ground_force1_vz	    ground_force1_px	    ground_force1_py	    ground_force1_pz	    ground_torque1_x	    ground_torque1_y	    ground_torque1_z	    ground_force2_vx	    ground_force2_vy	    ground_force2_vz	    ground_force2_px	    ground_force2_py	    ground_force2_pz	    ground_torque2_x	    ground_torque2_y	    ground_torque2_z	      hand_force3_vx	      hand_force3_vy	      hand_force3_vz	      hand_force3_px	      hand_force3_py	      hand_force3_pz	      hand_torque3_x	      hand_torque3_y	      hand_torque3_z	      hand_force4_vx	      hand_force4_vy	      hand_force4_vz	      hand_force4_px	      hand_force4_py	      hand_force4_pz	      hand_torque4_x	      hand_torque4_y	      hand_torque4_z	
1.51	         26.85774503	        408.40677675	         -6.11689785	          0.23129970	          0.00000000	          0.29430874	          0.00000000	         -4.26528606	          0.00000000	        -27.54467342	        392.65185621	         -1.96128894	          0.57305581	          0.00000000	          0.25895133	          0.00000000	          3.32741569	          0.00000000	         -7.15470065	          3.48975546	          3.96741182	          0.24123689	          0.40795226	         -0.04801608	          0.00000497	         -0.05275824	          0.00016714	          5.39251563	          1.82650123	          3.05363312	          0.55588544	          0.40795226	         -0.04756500	          0.00002047	          0.01938117	         -0.00003445	
1.511	         26.86976977	        408.41885929	         -6.16575407	          0.23129674	          0.00000000	          0.29418024	          0.00000000	         -4.26694272	          0.00000000	        -27.66561695	        393.15331120	         -1.95674269	          0.57309346	          0.00000000	          0.25882389	          0.00000000	          3.33056984	          0.00000000	         -7.21989262	          3.46443264	          4.03043177	          0.24121341	          0.40796322	         -0.04800907	          0.00000717	         -0.05097415	          0.00015864	          5.44898376	          1.79052878	          3.10605642	          0.55587896	          0.40796322	         -0.04757261	          0.00001958	          0.01770947	         -0.00003491	
1.512	         26.88410949	        408.44031755	         -6.20807053	          0.23129261	          0.00000000	          0.29404372	          0.00000000	         -4.26874776	          0.00000000	        -27.78903411	        393.67030755	         -1.95252865	          0.57313117	          0.00000000	          0.25869640	          0.00000000	          3.33372928	          0.00000000	         -7.28364108	          3.43241802	          4.09213630	          0.24117488	          0.40797479	         -0.04799774	          0.00000940	         -0.04907590	          0.00014949	          5.50670004	          1.74947201	          3.15896150	          0.55588378	          0.40797479	         -0.04757877	          0.00001870	          0.01609308	         -0.00003565	
1.513	         26.90079497	        408.47169332	         -6.24368014	          0.23128729	          0.00000000	          0.29389910	          0.00000000	         -4.27070010	          0.00000000	        -27.91490898	        394.20289535	         -1.94857748	          0.57316896	          0.00000000	          0.25856874	          0.00000000	          3.33688733	          0.00000000	         -7.34598983	          3.39343522	          4.15242712	          0.24112052	          0.40798699	         -0.04798191	          0.00001165	         -0.04706529	          0.00013971	          5.56564777	          1.70312097	          3.21227463	          0.55590055	          0.40798699	         -0.04758339	          0.00001785	          0.01453775	         -0.00003667	
1.514	         26.91985369	        408.51351164	         -6.27242583	          0.23128078	          0.00000000	          0.29374630	          0.00000000	         -4.27279829	          0.00000000	        -28.04322169	        394.75109942	         -1.94481348	          0.57320680	          0.00000000	          0.25844079	          0.00000000	          3.34003688	          0.00000000	         -7.40698294	          3.34720420	          4.21120415	          0.24104958	          0.40799982	         -0.04796144	          0.00001390	         -0.04494440	          0.00012930	          5.62580336	          1.65126261	          3.26591576	          0.55592993	          0.40799982	         -0.04758643	          0.00001701	          0.01304902	         -0.00003799	
1.515	         26.94130982	        408.56627917	         -6.29416066	          0.23127307	          0.00000000	          0.29358524	          0.00000000	         -4.27504044	          0.00000000	        -28.17394828	        395.31491878	         -1.94115477	          0.57324469	          0.00000000	          0.25831241	          0.00000000	          3.34317033	          0.00000000	         -7.46666446	          3.29344141	          4.26836558	          0.24096133	          0.40801329	         -0.04793616	          0.00001617	         -0.04271567	          0.00011826	          5.68713636	          1.59368083	          3.31979858	          0.55597256	          0.40801329	         -0.04758783	          0.00001620	          0.01163218	         -0.00003959	
1.516	         26.96518417	        408.63048263	         -6.30874802	          0.23126415	          0.00000000	          0.29341586	          0.00000000	         -4.27742429	          0.00000000	        -28.30706055	        395.89432614	         -1.93751344	          0.57328263	          0.00000000	          0.25818346	          0.00000000	          3.34627967	          0.00000000	         -7.52507815	          3.23186001	          4.32380784	          0.24085503	          0.40802739	         -0.04790595	          0.00001843	         -0.04038186	          0.00010662	          5.74960965	          1.53015660	          3.37383046	          0.55602907	          0.40802739	         -0.04758751	          0.00001543	          0.01029231	         -0.00004150	
1.517	         26.99149430	        408.70658723	         -6.31606170	          0.23125403	          0.00000000	          0.29323808	          0.00000000	         -4.27994710	          0.00000000	        -28.44252588	        396.48926758	         -1.93379578	          0.57332061	          0.00000000	          0.25805380	          0.00000000	          3.34935643	          0.00000000	         -7.58226723	          3.16217001	          4.37742569	          0.24073001	          0.40804213	         -0.04787067	          0.00002070	         -0.03794605	          0.00009438	          5.81317951	          1.46046802	          3.42791253	          0.55610007	          0.40804213	         -0.04758544	          0.00001468	          0.00903421	         -0.00004371	
1.518	         27.02025446	        408.79503524	         -6.31598602	          0.23124269	          0.00000000	          0.29305184	          0.00000000	         -4.28260575	          0.00000000	        -28.58030715	        397.09966216	         -1.92990247	          0.57335863	          0.00000000	          0.25792326	          0.00000000	          3.35239174	          0.00000000	         -7.63827418	          3.08407853	          4.42911224	          0.24058558	          0.40805751	         -0.04783019	          0.00002296	         -0.03541169	          0.00008157	          5.87779587	          1.38439045	          3.48193972	          0.55618617	          0.40805751	         -0.04758156	          0.00001396	          0.00786240	         -0.00004622	
1.519	         27.05147571	        408.89624458	         -6.30841591	          0.23123013	          0.00000000	          0.29285709	          0.00000000	         -4.28539667	          0.00000000	        -28.72036256	        397.72540168	         -1.92572886	          0.57339667	          0.00000000	          0.25779169	          0.00000000	          3.35537633	          0.00000000	         -7.69314051	          2.99729007	          4.47875899	          0.24042111	          0.40807353	         -0.04778440	          0.00002520	         -0.03278252	          0.00006820	          5.94340250	          1.30169664	          3.53580084	          0.55628795	          0.40807353	         -0.04757581	          0.00001328	          0.00678116	         -0.00004903	
1.52	         27.08516594	        409.01060752	         -6.29325694	          0.23121633	          0.00000000	          0.29265377	          0.00000000	         -4.28831589	          0.00000000	        -28.86264557	        398.36635055	         -1.92116523	          0.57343474	          0.00000000	          0.25765892	          0.00000000	          3.35830053	          0.00000000	         -7.74690665	          2.90150674	          4.52625590	          0.24023599	          0.40809019	         -0.04773321	          0.00002743	         -0.03006263	          0.00005429	          6.00993728	          1.21215687	          3.58937869	          0.55640597	          0.40809019	         -0.04756815	          0.00001264	          0.00579444	         -0.00005215	
1.521	         27.12132993	        409.13848938	         -6.27042535	          0.23120130	          0.00000000	          0.29244181	          0.00000000	         -4.29135897	          0.00000000	        -29.00710473	        399.02234565	         -1.91609713	          0.57347283	          0.00000000	          0.25752478	          0.00000000	          3.36115432	          0.00000000	         -7.79961177	          2.79642857	          4.57149149	          0.24002965	          0.40810748	         -0.04767651	          0.00002964	         -0.02725645	          0.00003987	          6.07733250	          1.11553909	          3.64255018	          0.55654075	          0.40810748	         -0.04755853	          0.00001204	          0.00490594	         -0.00005557	
1.522	         27.15996943	        409.28022743	         -6.23984810	          0.23118503	          0.00000000	          0.29222117	          0.00000000	         -4.29452107	          0.00000000	        -29.15368365	        399.69319633	         -1.91040565	          0.57351092	          0.00000000	          0.25738908	          0.00000000	          3.36392734	          0.00000000	         -7.85129366	          2.68175386	          4.61435285	          0.23980156	          0.40812541	         -0.04761422	          0.00003182	         -0.02436873	          0.00002496	          6.14551518	          1.01160910	          3.69518652	          0.55669282	          0.40812541	         -0.04754692	          0.00001148	          0.00411902	         -0.00005929	
1.523	         27.20108324	        409.43612975	         -6.20146282	          0.23116751	          0.00000000	          0.29199180	          0.00000000	         -4.29779692	          0.00000000	        -29.30232089	        400.37868447	         -1.90396787	          0.57354902	          0.00000000	          0.25725164	          0.00000000	          3.36660890	          0.00000000	         -7.90198867	          2.55717952	          4.65472581	          0.23955123	          0.40814397	         -0.04754630	          0.00003398	         -0.02140453	          0.00000960	          6.21440742	          0.90013073	          3.74715332	          0.55686264	          0.40814397	         -0.04753326	          0.00001097	          0.00343675	         -0.00006330	
